<?xml version="1.0" encoding="UTF-8" standalone="no"?>
<!-- Created with Inkscape (http://www.inkscape.org/) -->

<svg
   xmlns:dc="http://purl.org/dc/elements/1.1/"
   xmlns:cc="http://creativecommons.org/ns#"
   xmlns:rdf="http://www.w3.org/1999/02/22-rdf-syntax-ns#"
   xmlns:svg="http://www.w3.org/2000/svg"
   xmlns="http://www.w3.org/2000/svg"
   xmlns:sodipodi="http://sodipodi.sourceforge.net/DTD/sodipodi-0.dtd"
   xmlns:inkscape="http://www.inkscape.org/namespaces/inkscape"
   width="624"
   height="24"
   id="svg3032"
   version="1.1"
   inkscape:version="0.48.3.1 r9886"
   sodipodi:docname="opaqplanet24.svg"
   inkscape:export-filename="/home/willow/amax/images/size_png/opaqplanet24-1.png"
   inkscape:export-xdpi="90"
   inkscape:export-ydpi="90">
  <defs
     id="defs3034" />
  <sodipodi:namedview
     id="base"
     pagecolor="#ffffff"
     bordercolor="#666666"
     borderopacity="1.0"
     inkscape:pageopacity="0"
     inkscape:pageshadow="2"
     inkscape:zoom="44.8"
     inkscape:cx="9.9825977"
     inkscape:cy="-0.14957356"
     inkscape:document-units="px"
     inkscape:current-layer="layer1"
     showgrid="true"
     showborder="true"
     showguides="false"
     inkscape:snap-page="false"
     inkscape:snap-grids="false"
     inkscape:snap-to-guides="false"
     inkscape:window-width="1366"
     inkscape:window-height="727"
     inkscape:window-x="0"
     inkscape:window-y="22"
     inkscape:window-maximized="1"
     inkscape:showpageshadow="false"
     borderlayer="false">
    <sodipodi:guide
       position="0,0"
       orientation="0,336"
       id="guide3504" />
    <sodipodi:guide
       position="336,0"
       orientation="-24,0"
       id="guide3506" />
    <sodipodi:guide
       position="336,24"
       orientation="0,-336"
       id="guide3508" />
    <sodipodi:guide
       position="23.928571,24"
       orientation="24,0"
       id="guide3510" />
    <inkscape:grid
       type="xygrid"
       id="grid4293"
       empspacing="5"
       visible="true"
       enabled="true"
       snapvisiblegridlinesonly="true"
       spacingx="24px"
       spacingy="24px" />
  </sodipodi:namedview>
  <metadata
     id="metadata3037">
    <rdf:RDF>
      <cc:Work
         rdf:about="">
        <dc:format>image/svg+xml</dc:format>
        <dc:type
           rdf:resource="http://purl.org/dc/dcmitype/StillImage" />
        <dc:title></dc:title>
      </cc:Work>
    </rdf:RDF>
  </metadata>
  <g
     inkscape:label="Layer 1"
     inkscape:groupmode="layer"
     id="layer1"
     transform="translate(0,-1028.3622)">
    <rect
       style="fill:#ffffff;fill-opacity:1;stroke:none"
       id="rect4979-4"
       width="312"
       height="24"
       x="0"
       y="1028.3623" />
    <text
       xml:space="preserve"
       style="font-size:24.35334015px;font-style:normal;font-variant:normal;font-weight:normal;font-stretch:normal;line-height:125%;letter-spacing:0px;word-spacing:0px;fill:#000000;fill-opacity:1;stroke:none;font-family:Astronom;-inkscape-font-specification:Astronom"
       x="0.9351629"
       y="1049.9814"
       id="text2993"
       sodipodi:linespacing="125%"><tspan
         sodipodi:role="line"
         id="tspan2995"
         x="0.9351629"
         y="1049.9814">P</tspan></text>
    <text
       xml:space="preserve"
       style="font-size:25.42742538px;font-style:normal;font-variant:normal;font-weight:normal;font-stretch:normal;line-height:125%;letter-spacing:0px;word-spacing:0px;fill:#000000;fill-opacity:1;stroke:none;font-family:Astronom;-inkscape-font-specification:Astronom"
       x="23.169624"
       y="1096.2191"
       id="text2993-7"
       sodipodi:linespacing="125%"
       transform="scale(1.0441042,0.95775882)"><tspan
         sodipodi:role="line"
         id="tspan2995-4"
         x="23.169624"
         y="1096.2191">Q</tspan></text>
    <text
       xml:space="preserve"
       style="font-size:24.35334015px;font-style:normal;font-variant:normal;font-weight:normal;font-stretch:normal;line-height:125%;letter-spacing:0px;word-spacing:0px;fill:#000000;fill-opacity:1;stroke:none;font-family:Astronom;-inkscape-font-specification:Astronom"
       x="49.057339"
       y="1049.2654"
       id="text2993-5"
       sodipodi:linespacing="125%"><tspan
         sodipodi:role="line"
         id="tspan2995-5"
         x="49.057339"
         y="1049.2654">R</tspan></text>
    <text
       xml:space="preserve"
       style="font-size:24.35334015px;font-style:normal;font-variant:normal;font-weight:normal;font-stretch:normal;line-height:125%;letter-spacing:0px;word-spacing:0px;fill:#000000;fill-opacity:1;stroke:none;font-family:Astronom;-inkscape-font-specification:Astronom"
       x="73.127258"
       y="1049.4819"
       id="text2993-3"
       sodipodi:linespacing="125%"><tspan
         sodipodi:role="line"
         id="tspan2995-3"
         x="73.127258"
         y="1049.4819">S</tspan></text>
    <text
       xml:space="preserve"
       style="font-size:24.35334015px;font-style:normal;font-variant:normal;font-weight:normal;font-stretch:normal;line-height:125%;letter-spacing:0px;word-spacing:0px;fill:#000000;fill-opacity:1;stroke:none;font-family:Astronom;-inkscape-font-specification:Astronom"
       x="97.252594"
       y="1049.7474"
       id="text2993-55"
       sodipodi:linespacing="125%"><tspan
         sodipodi:role="line"
         id="tspan2995-0"
         x="97.252594"
         y="1049.7474">T</tspan></text>
    <text
       xml:space="preserve"
       style="font-size:24.35334015px;font-style:normal;font-variant:normal;font-weight:normal;font-stretch:normal;line-height:125%;letter-spacing:0px;word-spacing:0px;fill:#000000;fill-opacity:1;stroke:none;font-family:Astronom;-inkscape-font-specification:Astronom"
       x="121.007"
       y="1049.7648"
       id="text2993-57"
       sodipodi:linespacing="125%"><tspan
         sodipodi:role="line"
         id="tspan2995-05"
         x="121.007"
         y="1049.7648">U</tspan></text>
    <text
       xml:space="preserve"
       style="font-size:22.39425659px;font-style:normal;font-variant:normal;font-weight:normal;font-stretch:normal;line-height:125%;letter-spacing:0px;word-spacing:0px;fill:#000000;fill-opacity:1;stroke:none;font-family:Astronom;-inkscape-font-specification:Astronom"
       x="145.61409"
       y="1046.8279"
       id="text2993-4"
       sodipodi:linespacing="125%"><tspan
         sodipodi:role="line"
         id="tspan2995-9"
         x="145.61409"
         y="1046.8279">V</tspan></text>
    <text
       xml:space="preserve"
       style="font-size:24.35334015px;font-style:normal;font-variant:normal;font-weight:normal;font-stretch:normal;line-height:125%;letter-spacing:0px;word-spacing:0px;fill:#000000;fill-opacity:1;stroke:none;font-family:Astronom;-inkscape-font-specification:Astronom"
       x="168.71648"
       y="1049.6047"
       id="text2993-1"
       sodipodi:linespacing="125%"><tspan
         sodipodi:role="line"
         id="tspan2995-8"
         x="168.71648"
         y="1049.6047">W</tspan></text>
    <text
       xml:space="preserve"
       style="font-size:24.35334015px;font-style:normal;font-variant:normal;font-weight:normal;font-stretch:normal;line-height:125%;letter-spacing:0px;word-spacing:0px;fill:#000000;fill-opacity:1;stroke:none;font-family:Astronom;-inkscape-font-specification:Astronom"
       x="193.13271"
       y="1049.5031"
       id="text2993-2"
       sodipodi:linespacing="125%"><tspan
         sodipodi:role="line"
         id="tspan2995-1"
         x="193.13271"
         y="1049.5031">X</tspan></text>
    <text
       xml:space="preserve"
       style="font-size:24.35334015px;font-style:normal;font-variant:normal;font-weight:normal;font-stretch:normal;line-height:125%;letter-spacing:0px;word-spacing:0px;fill:#000000;fill-opacity:1;stroke:none;font-family:Astronom;-inkscape-font-specification:Astronom"
       x="217.01857"
       y="1049.6953"
       id="text2993-8"
       sodipodi:linespacing="125%"><tspan
         sodipodi:role="line"
         id="tspan2995-6"
         x="217.01857"
         y="1049.6953">Y</tspan></text>
    <g
       id="g4913"
       transform="translate(24,0)">
      <path
         sodipodi:nodetypes="ccccccccccccc"
         d="m 247.6227,1046.0675 3.05606,0 0,-3.6998 c 0.29129,-1.0824 2.00503,-0.6449 1.95017,-0.012 l 0,3.7117 3.04417,0 0,1.6886 -3.04417,0 0,2.9133 -1.95017,0 0,-2.9133 -3.05606,0 0,-1.6886"
         style="font-size:24.35334015px;font-style:normal;font-variant:normal;font-weight:normal;font-stretch:normal;line-height:125%;letter-spacing:0px;word-spacing:0px;fill:#000000;fill-opacity:1;stroke:none;font-family:Astronom;-inkscape-font-specification:Astronom"
         id="path4876"
         inkscape:connector-curvature="0" />
      <g
         id="text2993-7-2"
         style="font-size:15.61974049px;font-style:normal;font-variant:normal;font-weight:normal;font-stretch:normal;line-height:125%;letter-spacing:0px;word-spacing:0px;fill:#000000;fill-opacity:1;stroke:#000000;stroke-width:0.18621378;stroke-miterlimit:4;font-family:Astronom;-inkscape-font-specification:Astronom"
         transform="matrix(1.1638627,0,0,0.99113901,-17.638055,-76.210734)">
        <path
           style="stroke-width:0.17337787"
           inkscape:connector-curvature="0"
           id="path4880"
           d="m 230.85346,1116.8129 c 0.69657,0 1.34994,0.1322 1.96009,0.3965 0.61014,0.2645 1.16944,0.6509 1.6779,1.1593 0.53387,0.5441 0.96351,1.2051 1.28894,1.983 0.3254,0.7729 0.4881,1.5813 0.48811,2.4253 -10e-6,0.8542 -0.14238,1.6373 -0.4271,2.3491 -0.28475,0.7118 -0.67371,1.3372 -1.1669,1.8762 -0.48813,0.539 -1.06523,0.9635 -1.73129,1.2737 -0.661,0.3101 -1.35759,0.4652 -2.08975,0.4652 -0.80337,0 -1.58385,-0.2059 -2.34144,-0.6178 -0.29999,-0.1627 -0.67879,-0.4169 -1.1364,-0.7626 0.15254,0.015 0.30253,0.023 0.44999,0.023 0.23388,0 0.46269,-0.023 0.68641,-0.069 0.9864,-0.2288 1.7745,-0.8059 2.36432,-1.7313 0.53895,-0.8389 0.80843,-1.7745 0.80844,-2.8067 -1e-5,-1.1236 -0.31525,-2.1228 -0.94573,-2.9973 -0.44236,-0.6305 -1.0042,-1.0881 -1.68553,-1.3728 -0.39659,-0.1576 -0.80844,-0.2365 -1.23554,-0.2365 -0.0712,0 -0.1322,0 -0.18305,0 -0.0458,0 -0.12965,0.01 -0.25168,0.031 0.38642,-0.3457 0.77031,-0.6152 1.15165,-0.8084 0.38134,-0.1932 0.76268,-0.3381 1.14402,-0.4347 0.38134,-0.097 0.77285,-0.1449 1.17454,-0.1449 m -1.29657,1.0677 c 0.4932,0.1322 0.97623,0.3966 1.4491,0.7932 0.361,0.3203 0.6737,0.6763 0.9381,1.0678 0.62031,0.9203 0.93047,1.9321 0.93047,3.0354 0,1.0525 -0.27965,2.0364 -0.83895,2.9516 -0.29999,0.4932 -0.62286,0.8898 -0.9686,1.1898 -0.44237,0.3915 -0.93557,0.6508 -1.47961,0.7779 0.15762,0.051 0.34066,0.086 0.54913,0.1068 0.21355,0.015 0.45507,0.023 0.72455,0.023 0.50337,-0.046 0.97369,-0.1805 1.41097,-0.4042 0.80335,-0.4068 1.45671,-1.0474 1.96009,-1.922 0.47285,-0.8389 0.70928,-1.7465 0.70929,-2.7228 -1e-5,-1.0321 -0.28474,-1.9728 -0.8542,-2.8219 -0.54406,-0.8084 -1.24827,-1.4109 -2.11263,-1.8076 -0.37626,-0.1576 -0.77032,-0.2669 -1.18216,-0.3279 -0.0661,-0.01 -0.14746,-0.018 -0.24406,-0.023 -0.0966,-0.01 -0.18305,-0.01 -0.25931,-0.01 -0.2644,0 -0.50846,0.031 -0.73218,0.091" />
      </g>
    </g>
    <g
       id="g4908"
       transform="translate(25.160714,-0.17857143)">
      <path
         sodipodi:nodetypes="ccccccccccccc"
         d="m 270.98743,1046.1278 3.05606,0 0,-3.6998 c 0.29129,-1.0824 2.00503,-0.6449 1.95017,-0.012 l 0,3.7117 3.04417,0 0,1.6886 -3.04417,0 0,2.9133 -1.95017,0 0,-2.9133 -3.05606,0 0,-1.6886"
         style="font-size:24.35334015px;font-style:normal;font-variant:normal;font-weight:normal;font-stretch:normal;line-height:125%;letter-spacing:0px;word-spacing:0px;fill:#000000;fill-opacity:1;stroke:none;font-family:Astronom;-inkscape-font-specification:Astronom"
         id="path4876-7"
         inkscape:connector-curvature="0" />
      <g
         id="text2993-7-2-4"
         style="font-size:15.61974049px;font-style:normal;font-variant:normal;font-weight:normal;font-stretch:normal;line-height:125%;letter-spacing:0px;word-spacing:0px;fill:#000000;fill-opacity:1;stroke:#000000;stroke-width:0.18621378;stroke-miterlimit:4;font-family:Astronom;-inkscape-font-specification:Astronom"
         transform="matrix(-1.1638627,0,0,0.99113901,544.4519,-76.150377)">
        <path
           sodipodi:nodetypes="ccccccccsccscccccsscscc"
           style="stroke-width:0.17337787"
           inkscape:connector-curvature="0"
           id="path4880-7"
           d="m 230.85346,1116.8129 c 0.69657,0 1.34994,0.1322 1.96009,0.3965 0.61014,0.2645 1.16944,0.6509 1.6779,1.1593 0.53387,0.5441 0.96351,1.2051 1.28894,1.983 0.3254,0.7729 0.4881,1.5813 0.48811,2.4253 -10e-6,0.8542 -0.14238,1.6373 -0.4271,2.3491 -0.28475,0.7118 -0.67371,1.3372 -1.1669,1.8762 -0.48813,0.539 -1.06523,0.9635 -1.73129,1.2737 -0.661,0.3101 -1.35759,0.4652 -2.08975,0.4652 -0.80337,0 -1.58385,-0.2059 -2.34144,-0.6178 -0.29999,-0.1627 -0.67879,-0.4169 -1.1364,-0.7626 0.15254,0.015 0.30253,0.023 0.44999,0.023 0.23388,0 0.46269,-0.023 0.68641,-0.069 0.9864,-0.2288 1.7745,-0.8059 2.36432,-1.7313 0.53895,-0.8389 0.80843,-1.7745 0.80844,-2.8067 -1e-5,-1.1236 -0.31525,-2.1228 -0.94573,-2.9973 -0.44236,-0.6305 -1.0042,-1.0881 -1.68553,-1.3728 -0.39659,-0.1576 -0.80844,-0.2365 -1.23554,-0.2365 -0.0712,0 -0.1322,0 -0.18305,0 -0.0458,0 -0.12965,0.01 -0.25168,0.031 0.38642,-0.3457 0.77031,-0.6152 1.15165,-0.8084 0.38134,-0.1932 0.76268,-0.3381 1.14402,-0.4347 0.38134,-0.097 0.77285,-0.1449 1.17454,-0.1449" />
      </g>
    </g>
    <text
       xml:space="preserve"
       style="font-size:24.67482376px;font-style:normal;font-variant:normal;font-weight:normal;font-stretch:normal;line-height:125%;letter-spacing:0px;word-spacing:0px;fill:#000000;fill-opacity:1;stroke:none;font-family:Astronom;-inkscape-font-specification:Astronom"
       x="240.94971"
       y="1049.2588"
       id="text2993-6"
       sodipodi:linespacing="125%"><tspan
         sodipodi:role="line"
         id="tspan2995-53"
         x="240.94971"
         y="1049.2588">^</tspan></text>
    <rect
       style="fill:#000000;fill-opacity:1;stroke:none"
       id="rect4979"
       width="312"
       height="24"
       x="312"
       y="1028.3623" />
    <text
       xml:space="preserve"
       style="font-size:24.35334015px;font-style:normal;font-variant:normal;font-weight:normal;font-stretch:normal;line-height:125%;letter-spacing:0px;word-spacing:0px;fill:#ffffff;fill-opacity:1;stroke:none;font-family:Astronom;-inkscape-font-specification:Astronom"
       x="313.10065"
       y="1049.842"
       id="text2993-39"
       sodipodi:linespacing="125%"><tspan
         sodipodi:role="line"
         id="tspan2995-09"
         x="313.10065"
         y="1049.842">P</tspan></text>
    <text
       xml:space="preserve"
       style="font-size:25.42742538px;font-style:normal;font-variant:normal;font-weight:normal;font-stretch:normal;line-height:125%;letter-spacing:0px;word-spacing:0px;fill:#ffffff;fill-opacity:1;stroke:none;font-family:Astronom;-inkscape-font-specification:Astronom"
       x="322.14905"
       y="1096.0723"
       id="text2993-7-4"
       sodipodi:linespacing="125%"
       transform="scale(1.0441042,0.95775882)"><tspan
         sodipodi:role="line"
         id="tspan2995-4-3"
         x="322.14905"
         y="1096.0723">Q</tspan></text>
    <text
       xml:space="preserve"
       style="font-size:24.35334015px;font-style:normal;font-variant:normal;font-weight:normal;font-stretch:normal;line-height:125%;letter-spacing:0px;word-spacing:0px;fill:#ffffff;fill-opacity:1;stroke:none;font-family:Astronom;-inkscape-font-specification:Astronom"
       x="361.22281"
       y="1049.126"
       id="text2993-5-4"
       sodipodi:linespacing="125%"><tspan
         sodipodi:role="line"
         id="tspan2995-5-9"
         x="361.22281"
         y="1049.126">R</tspan></text>
    <text
       xml:space="preserve"
       style="font-size:24.35334015px;font-style:normal;font-variant:normal;font-weight:normal;font-stretch:normal;line-height:125%;letter-spacing:0px;word-spacing:0px;fill:#ffffff;fill-opacity:1;stroke:none;font-family:Astronom;-inkscape-font-specification:Astronom"
       x="385.29272"
       y="1049.3425"
       id="text2993-3-6"
       sodipodi:linespacing="125%"><tspan
         sodipodi:role="line"
         id="tspan2995-3-1"
         x="385.29272"
         y="1049.3425">S</tspan></text>
    <text
       xml:space="preserve"
       style="font-size:24.35334015px;font-style:normal;font-variant:normal;font-weight:normal;font-stretch:normal;line-height:125%;letter-spacing:0px;word-spacing:0px;fill:#ffffff;fill-opacity:1;stroke:none;font-family:Astronom;-inkscape-font-specification:Astronom"
       x="409.41806"
       y="1049.608"
       id="text2993-55-8"
       sodipodi:linespacing="125%"><tspan
         sodipodi:role="line"
         id="tspan2995-0-8"
         x="409.41806"
         y="1049.608">T</tspan></text>
    <text
       xml:space="preserve"
       style="font-size:24.35334015px;font-style:normal;font-variant:normal;font-weight:normal;font-stretch:normal;line-height:125%;letter-spacing:0px;word-spacing:0px;fill:#ffffff;fill-opacity:1;stroke:none;font-family:Astronom;-inkscape-font-specification:Astronom"
       x="433.17249"
       y="1049.6254"
       id="text2993-57-6"
       sodipodi:linespacing="125%"><tspan
         sodipodi:role="line"
         id="tspan2995-05-3"
         x="433.17249"
         y="1049.6254">U</tspan></text>
    <text
       xml:space="preserve"
       style="font-size:22.39425659px;font-style:normal;font-variant:normal;font-weight:normal;font-stretch:normal;line-height:125%;letter-spacing:0px;word-spacing:0px;fill:#ffffff;fill-opacity:1;stroke:none;font-family:Astronom;-inkscape-font-specification:Astronom"
       x="457.77954"
       y="1046.6885"
       id="text2993-4-7"
       sodipodi:linespacing="125%"><tspan
         sodipodi:role="line"
         id="tspan2995-9-9"
         x="457.77954"
         y="1046.6885">V</tspan></text>
    <text
       xml:space="preserve"
       style="font-size:24.35334015px;font-style:normal;font-variant:normal;font-weight:normal;font-stretch:normal;line-height:125%;letter-spacing:0px;word-spacing:0px;fill:#ffffff;fill-opacity:1;stroke:none;font-family:Astronom;-inkscape-font-specification:Astronom"
       x="480.88193"
       y="1049.4653"
       id="text2993-1-3"
       sodipodi:linespacing="125%"><tspan
         sodipodi:role="line"
         id="tspan2995-8-9"
         x="480.88193"
         y="1049.4653">W</tspan></text>
    <text
       xml:space="preserve"
       style="font-size:24.35334015px;font-style:normal;font-variant:normal;font-weight:normal;font-stretch:normal;line-height:125%;letter-spacing:0px;word-spacing:0px;fill:#ffffff;fill-opacity:1;stroke:none;font-family:Astronom;-inkscape-font-specification:Astronom"
       x="505.29816"
       y="1049.3636"
       id="text2993-2-1"
       sodipodi:linespacing="125%"><tspan
         sodipodi:role="line"
         id="tspan2995-1-1"
         x="505.29816"
         y="1049.3636">X</tspan></text>
    <text
       xml:space="preserve"
       style="font-size:24.35334015px;font-style:normal;font-variant:normal;font-weight:normal;font-stretch:normal;line-height:125%;letter-spacing:0px;word-spacing:0px;fill:#ffffff;fill-opacity:1;stroke:none;font-family:Astronom;-inkscape-font-specification:Astronom"
       x="529.18402"
       y="1049.5559"
       id="text2993-8-7"
       sodipodi:linespacing="125%"><tspan
         sodipodi:role="line"
         id="tspan2995-6-5"
         x="529.18402"
         y="1049.5559">Y</tspan></text>
    <text
       xml:space="preserve"
       style="font-size:24.67482376px;font-style:normal;font-variant:normal;font-weight:normal;font-stretch:normal;line-height:125%;letter-spacing:0px;word-spacing:0px;fill:#ffffff;fill-opacity:1;stroke:none;font-family:Astronom;-inkscape-font-specification:Astronom"
       x="553.11517"
       y="1049.1194"
       id="text2993-6-6"
       sodipodi:linespacing="125%"><tspan
         sodipodi:role="line"
         id="tspan2995-53-2"
         x="553.11517"
         y="1049.1194">^</tspan></text>
    <g
       id="g5092">
      <g
         id="text2993-7-2-2"
         style="font-size:15.61974049px;font-style:normal;font-variant:normal;font-weight:normal;font-stretch:normal;line-height:125%;letter-spacing:0px;word-spacing:0px;fill:#ffffff;fill-opacity:1;stroke:#000000;stroke-width:0.18621378;stroke-miterlimit:4;font-family:Astronom;-inkscape-font-specification:Astronom"
         transform="matrix(1.1638627,0,0,0.99113901,318.52742,-76.35019)">
        <path
           style="fill:#ffffff;stroke-width:0.17337787"
           inkscape:connector-curvature="0"
           id="path4880-0"
           d="m 230.85346,1116.8129 c 0.69657,0 1.34994,0.1322 1.96009,0.3965 0.61014,0.2645 1.16944,0.6509 1.6779,1.1593 0.53387,0.5441 0.96351,1.2051 1.28894,1.983 0.3254,0.7729 0.4881,1.5813 0.48811,2.4253 -10e-6,0.8542 -0.14238,1.6373 -0.4271,2.3491 -0.28475,0.7118 -0.67371,1.3372 -1.1669,1.8762 -0.48813,0.539 -1.06523,0.9635 -1.73129,1.2737 -0.661,0.3101 -1.35759,0.4652 -2.08975,0.4652 -0.80337,0 -1.58385,-0.2059 -2.34144,-0.6178 -0.29999,-0.1627 -0.67879,-0.4169 -1.1364,-0.7626 0.15254,0.015 0.30253,0.023 0.44999,0.023 0.23388,0 0.46269,-0.023 0.68641,-0.069 0.9864,-0.2288 1.7745,-0.8059 2.36432,-1.7313 0.53895,-0.8389 0.80843,-1.7745 0.80844,-2.8067 -1e-5,-1.1236 -0.31525,-2.1228 -0.94573,-2.9973 -0.44236,-0.6305 -1.0042,-1.0881 -1.68553,-1.3728 -0.39659,-0.1576 -0.80844,-0.2365 -1.23554,-0.2365 -0.0712,0 -0.1322,0 -0.18305,0 -0.0458,0 -0.12965,0.01 -0.25168,0.031 0.38642,-0.3457 0.77031,-0.6152 1.15165,-0.8084 0.38134,-0.1932 0.76268,-0.3381 1.14402,-0.4347 0.38134,-0.097 0.77285,-0.1449 1.17454,-0.1449 m -1.29657,1.0677 c 0.4932,0.1322 0.97623,0.3966 1.4491,0.7932 0.361,0.3203 0.6737,0.6763 0.9381,1.0678 0.62031,0.9203 0.93047,1.9321 0.93047,3.0354 0,1.0525 -0.27965,2.0364 -0.83895,2.9516 -0.29999,0.4932 -0.62286,0.8898 -0.9686,1.1898 -0.44237,0.3915 -0.93557,0.6508 -1.47961,0.7779 0.15762,0.051 0.34066,0.086 0.54913,0.1068 0.21355,0.015 0.45507,0.023 0.72455,0.023 0.50337,-0.046 0.97369,-0.1805 1.41097,-0.4042 0.80335,-0.4068 1.45671,-1.0474 1.96009,-1.922 0.47285,-0.8389 0.70928,-1.7465 0.70929,-2.7228 -1e-5,-1.0321 -0.28474,-1.9728 -0.8542,-2.8219 -0.54406,-0.8084 -1.24827,-1.4109 -2.11263,-1.8076 -0.37626,-0.1576 -0.77032,-0.2669 -1.18216,-0.3279 -0.0661,-0.01 -0.14746,-0.018 -0.24406,-0.023 -0.0966,-0.01 -0.18305,-0.01 -0.25931,-0.01 -0.2644,0 -0.50846,0.031 -0.73218,0.091" />
      </g>
      <path
         sodipodi:nodetypes="ccccccccccccc"
         d="m 583.78817,1045.928 3.05606,0 0,-3.6998 c 0.29129,-1.0824 2.00503,-0.6449 1.95017,-0.012 l 0,3.7117 3.04417,0 0,1.6886 -3.04417,0 0,2.9133 -1.95017,0 0,-2.9133 -3.05606,0 0,-1.6886"
         style="font-size:24.35334015px;font-style:normal;font-variant:normal;font-weight:normal;font-stretch:normal;line-height:125%;letter-spacing:0px;word-spacing:0px;fill:#ffffff;fill-opacity:1;stroke:none;font-family:Astronom;-inkscape-font-specification:Astronom"
         id="path4876-0"
         inkscape:connector-curvature="0" />
    </g>
    <g
       id="g5097">
      <g
         id="text2993-7-2-4-6"
         style="font-size:15.61974049px;font-style:normal;font-variant:normal;font-weight:normal;font-stretch:normal;line-height:125%;letter-spacing:0px;word-spacing:0px;fill:#ffffff;fill-opacity:1;stroke:#000000;stroke-width:0.18621378;stroke-miterlimit:4;font-family:Astronom;-inkscape-font-specification:Astronom"
         transform="matrix(-1.1638627,0,0,0.99113901,881.77808,-76.468433)">
        <path
           sodipodi:nodetypes="ccccccccsccscccccsscscc"
           style="fill:#ffffff;stroke-width:0.17337787"
           inkscape:connector-curvature="0"
           id="path4880-7-1"
           d="m 230.85346,1116.8129 c 0.69657,0 1.34994,0.1322 1.96009,0.3965 0.61014,0.2645 1.16944,0.6509 1.6779,1.1593 0.53387,0.5441 0.96351,1.2051 1.28894,1.983 0.3254,0.7729 0.4881,1.5813 0.48811,2.4253 -10e-6,0.8542 -0.14238,1.6373 -0.4271,2.3491 -0.28475,0.7118 -0.67371,1.3372 -1.1669,1.8762 -0.48813,0.539 -1.06523,0.9635 -1.73129,1.2737 -0.661,0.3101 -1.35759,0.4652 -2.08975,0.4652 -0.80337,0 -1.58385,-0.2059 -2.34144,-0.6178 -0.29999,-0.1627 -0.67879,-0.4169 -1.1364,-0.7626 0.15254,0.015 0.30253,0.023 0.44999,0.023 0.23388,0 0.46269,-0.023 0.68641,-0.069 0.9864,-0.2288 1.7745,-0.8059 2.36432,-1.7313 0.53895,-0.8389 0.80843,-1.7745 0.80844,-2.8067 -1e-5,-1.1236 -0.31525,-2.1228 -0.94573,-2.9973 -0.44236,-0.6305 -1.0042,-1.0881 -1.68553,-1.3728 -0.39659,-0.1576 -0.80844,-0.2365 -1.23554,-0.2365 -0.0712,0 -0.1322,0 -0.18305,0 -0.0458,0 -0.12965,0.01 -0.25168,0.031 0.38642,-0.3457 0.77031,-0.6152 1.15165,-0.8084 0.38134,-0.1932 0.76268,-0.3381 1.14402,-0.4347 0.38134,-0.097 0.77285,-0.1449 1.17454,-0.1449" />
      </g>
      <path
         sodipodi:nodetypes="ccccccccccccc"
         d="m 608.31361,1045.8097 3.05606,0 0,-3.6998 c 0.29129,-1.0824 2.00503,-0.6449 1.95017,-0.012 l 0,3.7117 3.04417,0 0,1.6886 -3.04417,0 0,2.9133 -1.95017,0 0,-2.9133 -3.05606,0 0,-1.6886"
         style="font-size:24.35334015px;font-style:normal;font-variant:normal;font-weight:normal;font-stretch:normal;line-height:125%;letter-spacing:0px;word-spacing:0px;fill:#ffffff;fill-opacity:1;stroke:none;font-family:Astronom;-inkscape-font-specification:Astronom"
         id="path4876-7-1"
         inkscape:connector-curvature="0" />
    </g>
  </g>
</svg>
